{"title":"Behind the Walls Part 1+2 [RTE Ireland] HQ PDTV x264 AC3 DeViL30","uid":8171948,"size":1171347639,"categoryP":"video","categoryS":"tv_shows","magnet":"?xt=urn:btih:6f40ce2ebc24eeee982ecdb67e69f7d50bdb45e5&amp;dn=Behind+the+Walls+Part+1%2B2+%5BRTE+Ireland%5D+HQ+PDTV+x264+AC3+DeViL30&amp;tr=udp%3A%2F%2Ftracker.openbittorrent.com%3A80&amp;tr=udp%3A%2F%2Fopen.demonii.com%3A1337&amp;tr=udp%3A%2F%2Ftracker.coppersurfer.tk%3A6969&amp;tr=udp%3A%2F%2Fexodus.desync.com%3A6969","seeders":1,"leechers":4,"uploader":"DeViL303","files":-1,"time":1361406866,"description":"Behind the Walls Part 1+2 [RTE Ireland] HQ PDTV x264 AC3 DeViL303\n\nBroadcast 6th / 13th Jan 2013\n\n'Behind the Walls' is a two-part documentary series charting the history of Ireland's psychiatric hospitals. Part one lifts the lid on this vast system - during the middle decades of the 20th century, Ireland led the world in locking up more of its people per capita in mental hospitals, ahead even of the old Soviet Union.\n\nThis documentary reveals damning evidence of appalling conditions within the hospitals, information which was kept secret by the State. It also tells the remarkable story of Hanna Greally, locked up for almost 20 years, but who emerged to write about her experiences in the 1970s, becoming one of the very few to chronicle her experiences behind the walls.\n\nBehind the Walls is a Misha Films production.\n\nProduced and written by Mary Raftery (States of Fear)\n\nFile Info:\nComplete name                            : Behind the Walls Part 1 [RTE Ireland] HQ PDTV x264 AC3 DeViL303.mkv\nFormat                                   : Matroska\nFormat version                           : Version 1\nFile size                                : 556 MiB\nDuration                                 : 51mn 58s\nOverall bit rate mode                    : Variable\nOverall bit rate                         : 1 497 Kbps\nEncoded date                             : UTC 2013-02-20 13:34:04\nWriting application                      : mkvmerge v2.5.3 ('Boogie') built on Mar  7 2009 15:00:41\nWriting library                          : libebml v0.7.7 + libmatroska v0.8.1\n\nVideo\nID                                       : 1\nFormat                                   : AVC\nFormat/Info                              : Advanced Video Codec\nFormat profile                           : &lt;a class=&quot;__cf_email__&quot; href=&quot;/cdn-cgi/l/email-protection&quot; data-cfemail=&quot;4800212f2008047b6678&quot;&gt;[email&amp;#160;protected]&lt;/a&gt;&lt;script cf-hash='f9e31' type=&quot;text/javascript&quot;&gt;\n/* &lt;![CDATA[ */!function(){try{var t=&quot;currentScript&quot;in document?document.currentScript:function(){for(var t=document.getElementsByTagName(&quot;script&quot;),e=t.length;e--;)if(t[e].getAttribute(&quot;cf-hash&quot;))return t[e]}();if(t&amp;&amp;t.previousSibling){var e,r,n,i,c=t.previousSibling,a=c.getAttribute(&quot;data-cfemail&quot;);if(a){for(e=&quot;&quot;,r=parseInt(a.substr(0,2),16),n=2;a.length-n;n+=2)i=parseInt(a.substr(n,2),16)^r,e+=String.fromCharCode(i);e=document.createTextNode(e),c.parentNode.replaceChild(e,c)}}}catch(u){}}();/* ]]&gt; */&lt;/script&gt;\nFormat settings, CABAC                   : Yes\nFormat settings, ReFrames                : 3 frames\nCodec ID                                 : V_MPEG4/ISO/AVC\nDuration                                 : 51mn 58s\nBit rate mode                            : Variable\nBit rate                                 : 1 303 Kbps\nMaximum bit rate                         : 12.0 Mbps\nWidth                                    : 720 pixels\nHeight                                   : 576 pixels\nDisplay aspect ratio                     : 16:9\nOriginal display aspect ratio            : 5:4\nFrame rate mode                          : Constant\nFrame rate                               : 25.000 fps\nStandard                                 : PAL\nColor space                              : YUV\nChroma subsampling                       : 4:2:0\nBit depth                                : 8 bits\nScan type                                : Progressive\nBits/(Pixel*Frame)                       : 0.126\nStream size                              : 474 MiB (85%)\nWriting library                          : x264 core 93 r1542M 5b86182\nEncoding settings                        : cabac=1 / ref=3 / deblock=1:-1:-1 / \nDefault                                  : Yes\nForced                                   : No\n\nAudio\nID                                       : 2\nFormat                                   : AC-3\nFormat/Info                              : Audio Coding 3\nMode extension                           : CM (complete main)\nFormat settings, Endianness              : Big\nCodec ID                                 : A_AC3\nDuration                                 : 51mn 58s\nBit rate mode                            : Constant\nBit rate                                 : 192 Kbps\nChannel(s)                               : 2 channels\nChannel positions                        : Front: L R\nSampling rate                            : 48.0 KHz\nBit depth                                : 16 bits\nCompression mode                         : Lossy\nStream size                              : 71.4 MiB (13%)\nDefault                                  : Yes\nForced                                   : No","torrent":{"xt":"urn:btih:6f40ce2ebc24eeee982ecdb67e69f7d50bdb45e5","amp;dn":"Behind+the+Walls+Part+1%2B2+%5BRTE+Ireland%5D+HQ+PDTV+x264+AC3+DeViL30","amp;tr":["udp%3A%2F%2Ftracker.openbittorrent.com%3A80","udp%3A%2F%2Fopen.demonii.com%3A1337","udp%3A%2F%2Ftracker.coppersurfer.tk%3A6969","udp%3A%2F%2Fexodus.desync.com%3A6969"],"infoHash":"6f40ce2ebc24eeee982ecdb67e69f7d50bdb45e5","infoHashBuffer":{"type":"Buffer","data":[111,64,206,46,188,36,238,238,152,46,205,182,126,105,247,213,11,219,69,229]},"announce":[],"urlList":[]}}